<?xml version="1.0" standalone="yes"?>

<svg version="1.1" viewBox="0.0 0.0 175.0 170.0" fill="none" stroke="none" stroke-linecap="square" stroke-miterlimit="10" xmlns="http://www.w3.org/2000/svg" xmlns:xlink="http://www.w3.org/1999/xlink">
<clipPath id="p.0"><path d="m0 0l960.0 0l0 720.0l-960.0 0l0 -720.0z" clip-rule="nonzero"></path></clipPath>
<g clip-path="url(#p.0)">
<path fill="#000000" fill-opacity="0.0" d="m0 0l960.0 0l0 720.0l-960.0 0z" fill-rule="nonzero"></path>
<path fill="#f3f3f3" d="m16.0 88.0l0 0c0 -39.764503 34.02636 -72.0 76.0 -72.0l0 0c20.156456 0 39.48735 7.5856915 53.740112 21.08831c14.252762 13.502621 22.259888 31.816101 22.259888 50.91169l0 0c0 39.764503 -34.026352 72.0 -76.0 72.0l0 0c-41.97364 0 -76.0 -32.235497 -76.0 -72.0z" fill-rule="nonzero"></path>
<path stroke="#d9d9d9" stroke-width="2.0" stroke-linejoin="round" stroke-linecap="butt" d="m16.0 88.0l0 0c0 -39.764503 34.02636 -72.0 76.0 -72.0l0 0c20.156456 0 39.48735 7.5856915 53.740112 21.08831c14.252762 13.502621 22.259888 31.816101 22.259888 50.91169l0 0c0 39.764503 -34.026352 72.0 -76.0 72.0l0 0c-41.97364 0 -76.0 -32.235497 -76.0 -72.0z" fill-rule="nonzero"></path>
<path fill="#000000" fill-opacity="0.0" d="m47.149605 16.0l80.850395 0l0 84.88189l-80.850395 0z" fill-rule="nonzero"></path>
<path fill="#cc0000" d="m94.44648 117.159996l-15.09375 0l-12.328125 -68.71875l14.109375 0l8.71875 51.984375l28.453125 -51.984375l14.015633 0l-37.875008 68.71875z" fill-rule="nonzero"></path>
<path fill="#000000" fill-opacity="0.0" d="m64.0 16.0l80.85039 0l0 84.88189l-80.85039 0z" fill-rule="nonzero"></path>
<path fill="#fc4aff" d="m116.453125 117.159996l-13.40625 0l-2.484375 -57.421875l-10.921875 57.421875l-12.75 0l14.34375 -68.71875l20.15625 0l2.109375 48.140625l23.4375 -48.140625l20.390625 0l-14.390625 68.71875l-12.890625 0l13.546875 -57.0l-27.140625 57.0z" fill-rule="nonzero"></path>
<path fill="#000000" fill-opacity="0.0" d="m8.0 16.0l60.314957 0l0 82.708664l-60.314957 0z" fill-rule="nonzero"></path>
<path fill="#ff9900" d="m23.09375 94.89437l13.453125 -0.703125q0.28125 6.421875 2.203125 8.671875q3.09375 3.65625 11.4375 3.65625q6.9375 0 10.03125 -2.484375q3.09375 -2.484375 3.09375 -6.0q0 -3.046875 -2.53125 -5.15625q-1.78125 -1.546875 -9.78125 -5.015625q-7.984375 -3.46875 -11.671875 -5.78125q-3.671875 -2.328125 -5.78125 -6.03125q-2.109375 -3.703125 -2.109375 -8.671875q0 -8.671875 6.28125 -14.390625q6.28125 -5.71875 18.1875 -5.71875q12.09375 0 18.71875 5.671875q6.640625 5.671875 7.296875 15.09375l-13.546875 0.609375q-0.515625 -4.921875 -3.5625 -7.546875q-3.046875 -2.625 -9.0 -2.625q-5.859375 0 -8.375 2.0625q-2.5 2.0625 -2.5 5.203125q0 2.953125 2.296875 4.875q2.296875 1.96875 10.171875 5.390625q11.859375 5.109375 15.09375 8.296875q4.828125 4.6875 4.828125 12.046875q0 9.09375 -7.203125 15.546875q-7.1875 6.4375 -20.03125 6.4375q-8.859375 0 -15.359375 -2.96875q-6.484375 -2.984375 -9.15625 -8.28125q-2.671875 -5.296875 -2.484375 -12.1875z" fill-rule="nonzero"></path>
</g>
</svg>
